<?xml version="1.0" encoding="UTF-8" standalone="no"?>
<!-- Created with Inkscape (http://www.inkscape.org/) -->
<svg
   xmlns:svg="http://www.w3.org/2000/svg"
   xmlns="http://www.w3.org/2000/svg"
   version="1.0"
   width="22"
   height="21"
   id="svg3817">
  <defs
     id="defs3819" />
  <g
     transform="translate(-615.46967,-424.8805)"
     id="layer1">
    <path
       d="M 637.05591,435.24912 C 637.05589,438.09942 636.07014,440.54964 634.09867,442.59977 C 632.16589,444.61059 629.80355,445.68421 627.01167,445.82065 C 626.83589,445.82065 626.66013,445.82065 626.48439,445.82065 C 623.63408,445.82065 621.18387,444.84444 619.13374,442.89201 C 617.12292,440.95925 616.03946,438.59691 615.88337,435.805 C 615.88337,435.61019 615.88337,435.42489 615.88337,435.24912 C 615.88337,432.53528 616.86941,430.0949 618.8415,427.92797 C 618.88022,427.869 618.92878,427.81032 618.98717,427.75191 L 619.98275,428.74749 C 618.20667,430.64154 617.31864,432.80875 617.31864,435.24912 C 617.31864,437.78723 618.21651,439.95414 620.01224,441.74987 C 621.7889,443.52653 623.94628,444.41487 626.48439,444.41487 C 629.0028,444.41487 631.15035,443.52653 632.92704,441.74987 C 634.74241,439.9732 635.6501,437.81612 635.65013,435.27862 C 635.6501,433.75577 635.25986,432.23292 634.47939,430.71004 C 634.03013,429.8116 633.52251,429.15741 632.95653,428.74749 L 631.96095,431.73511 L 630.14496,424.94035 L 636.96833,426.75634 L 633.9816,427.75191 C 635.95307,430.05588 636.97784,432.55494 637.05591,435.24912 L 637.05591,435.24912 z "
       style="font-size:29.28461456px;font-style:normal;font-weight:normal;fill:#000000;fill-opacity:1;stroke:none;stroke-width:1px;stroke-linecap:butt;stroke-linejoin:miter;stroke-opacity:1;font-family:Arial"
       id="text3928" />
  </g>
</svg>
